<?xml version="1.0" encoding="UTF-8" standalone="no"?><svg xmlns="http://www.w3.org/2000/svg" xmlns:xlink="http://www.w3.org/1999/xlink" fill="#000000" height="503.4" preserveAspectRatio="xMidYMid meet" version="1" viewBox="-2.9 -3.4 395.4 503.4" width="395.4" zoomAndPan="magnify"><g id="Illustration"><g id="change1_1"><path d="M387.59375,196.2549438c0-110.219635-93.1914673-198.6727753-205.0787659-190.864502 C86.4398193,12.0952339,9.4541149,91.1685104,5.1046987,187.3790894 C1.9207466,257.8092041,36.8461418,320.29422,90.9884338,356.0285339 c9.9249115,6.5505066,15.7603378,17.7626953,15.7603378,29.6544189l0.0000153,99.6109314 c0,5.4144592,4.3892822,9.8037415,9.8037415,9.8037415h159.3924866c5.4144592,0,9.8037415-4.3892822,9.8037415-9.8037415 V383.1547241c0-10.46875,5.2097778-20.3131409,14.0093994-25.9841919 C352.5938721,323.1195679,387.59375,263.7860107,387.59375,196.2549438z" fill="#fffbe0"/></g><g id="change2_1"><path d="M275.9451599,500H116.5529861c-8.1091461,0-14.7056122-6.5964661-14.7056122-14.7055969v-99.6123352 c0-10.4021301-5.0694122-19.9569397-13.5591278-25.5625C29.9804001,321.634613-2.9468639,256.9744568,0.2077581,187.1586914 C4.7051287,87.6732101,82.9340057,7.4266205,182.1729584,0.4998561 c55.1651917-3.8559151,107.668808,14.6960382,147.896225,52.2116241 c39.67453,37.0009842,62.427063,89.3203201,62.427063,143.5424805c0,66.9866486-33.6764221,128.68367-90.0838623,165.036026 c-7.3647766,4.7486877-11.7615967,12.9200745-11.7615967,21.864563v102.1398621 C290.6507874,493.4035339,284.0543213,500,275.9451599,500z M196.3974762,9.8057508 c-4.4925842,0-9.0067139,0.1579704-13.539978,0.4739113C88.5850372,16.8593712,14.2743082,93.0920792,10.0019255,187.5990906 c-2.9990449,66.3380127,28.2862816,127.771759,83.6860428,164.3395081 c11.2470169,7.4222412,17.96315,20.0383301,17.96315,33.7434692v99.6123352c0,2.70224,2.1996231,4.9018555,4.9018707,4.9018555 h159.3921814c2.7022705,0,4.901886-2.1996155,4.901886-4.9018555V383.154541 c0-12.2905884,6.0770569-23.5447998,16.2565918-30.1029663c53.5926514-34.5404663,85.5888672-93.157074,85.5888672-156.7976227 c0-51.5151215-21.6180115-101.2207565-59.3083496-136.3739624C288.4750977,27.3237152,243.8077545,9.8057508,196.3974762,9.8057508 z" fill="#000000"/></g><g id="change3_1"><path d="M285.7487488,382.2255249H106.7487869v103.0683594c0,5.4144592,4.3892822,9.8037415,9.8037415,9.8037415 h159.3924866c5.4144592,0,9.8037415-4.3892822,9.8037415-9.8037415V382.2255249z" fill="#ffd83f"/></g><g id="change2_2"><path d="M275.9451599,500H116.5529861c-8.1091461,0-14.7056122-6.5964661-14.7056122-14.7055969V382.2258606 c0-2.7070313,2.1948318-4.901886,4.9018707-4.901886h178.9996643c2.7070313,0,4.901886,2.1948547,4.901886,4.901886v103.0685425 C290.6507874,493.4035339,284.0543213,500,275.9451599,500z M111.6511154,387.1277161v98.166687 c0,2.70224,2.1996231,4.9018555,4.9018707,4.9018555h159.3921814c2.7022705,0,4.901886-2.1996155,4.901886-4.9018555v-98.166687 H111.6511154z" fill="#000000"/></g><g id="change2_3"><path d="M276.2443542,324.3656006c-1.6036377,0-3.1737671-0.7850647-4.1144104-2.228363 c-1.4743958-2.2690125-0.8329468-5.306366,1.4360962-6.7831421c40.5098267-26.361908,64.6936646-70.8856506,64.6936646-119.0977478 c0-2.7070313,2.1948547-4.9018707,4.901886-4.9018707s4.9018555,2.1948395,4.9018555,4.9018707 c0,51.5414429-25.8497009,99.1360168-69.1503601,127.3169861 C278.0873413,324.1094971,277.1610718,324.3656006,276.2443542,324.3656006z" fill="#000000"/></g><g id="change2_4"><path d="M49.4945374,194.2888947c-0.0765915,0-0.1507912-0.0023956-0.2273827-0.004776 c-2.7022514-0.1220703-4.7965584-2.4150391-4.6744881-5.1196899C48.2020493,109.3654251,116.2537994,44.441967,196.29216,44.441967 c2.7070313,0,4.9018707,2.1948318,4.9018707,4.9018707s-2.1948395,4.9018707-4.9018707,4.9018707 c-74.8708115,0-138.5305023,60.7228813-141.9053345,135.3639069 C54.2671585,192.2376709,52.0986557,194.2888947,49.4945374,194.2888947z" fill="#000000"/></g><g id="change4_1"><path d="M83.099 434.983L309.398 410.258" fill="#ffffff"/></g><g id="change2_5"><path d="M83.09198,439.8850708c-2.4676895,0-4.5907211-1.8597412-4.8659744-4.3705139 c-0.2943954-2.6902771,1.6491165-5.1101074,4.3417969-5.4045105l226.2998352-24.724762 c2.6400146-0.306366,5.1101074,1.6467285,5.4045105,4.3417969c0.2944031,2.6902771-1.6491394,5.1101074-4.3417969,5.4045105 l-226.2998352,24.724762C83.451004,439.8754883,83.271492,439.8850708,83.09198,439.8850708z" fill="#000000"/></g><g id="change4_2"><path d="M83.099 472.44L309.398 447.715" fill="#ffffff"/></g><g id="change2_6"><path d="M83.09198,477.3408203c-2.4676895,0-4.5907211-1.8597412-4.8659744-4.3705139 c-0.2943954-2.6902771,1.6491165-5.1101074,4.3417969-5.4045105l226.2998352-24.724762 c2.6400146-0.3135681,5.1101074,1.6467285,5.4045105,4.3417969c0.2944031,2.6902771-1.6491394,5.1101074-4.3417969,5.40448 L83.6305161,477.3121033C83.451004,477.3312378,83.271492,477.3408203,83.09198,477.3408203z" fill="#000000"/></g></g></svg>