<?xml version="1.0" encoding="UTF-8" standalone="no"?><svg xmlns="http://www.w3.org/2000/svg" xmlns:xlink="http://www.w3.org/1999/xlink" fill="#000000" height="500" preserveAspectRatio="xMidYMid meet" version="1" viewBox="-0.5 0.0 500.9 500.0" width="500.9" zoomAndPan="magnify"><g id="Illustration"><g id="change1_1"><path d="M352.6632996 278.068634L352.6632996 5.5627208 147.337677 5.5627208 147.337677 278.068634 5.5652323 278.068634 250.0004883 494.4332275 494.43573 278.068634z" fill="#ffd83f"/></g><g id="change2_1"><path d="M250,499.9959412c-1.3175354,0-2.6350555-0.4645386-3.6863708-1.3963013L1.8778119,282.2367249 c-1.7331635-1.5348511-2.3362393-3.9770508-1.5158389-6.1394348s2.8904169-3.5912781,5.2022071-3.5912781h136.2108917V5.563509 c0-3.0724261,2.4910889-5.563509,5.5635223-5.563509h205.325531c3.0724487,0,5.5635071,2.4910829,5.5635071,5.563509V272.506012 h136.2081909c2.3117981,0,4.3818054,1.428894,5.2022095,3.5912781s0.2173157,4.6045837-1.5158386,6.1394348 l-244.4358215,216.362915C252.6350555,499.5314026,251.3175354,499.9959412,250,499.9959412z M20.2444553,283.6330261 L250,487.002655l229.7555542-203.3696289H352.6641235c-3.0724182,0-5.5635071-2.4910889-5.5635071-5.5635071V11.127018H152.9020996 V278.069519c0,3.0724182-2.4910889,5.5635071-5.5635071,5.5635071H20.2444553z" fill="#000000"/></g></g></svg>