<?xml version="1.0" encoding="UTF-8" standalone="no"?><svg xmlns="http://www.w3.org/2000/svg" xmlns:xlink="http://www.w3.org/1999/xlink" fill="#000000" height="379.2" preserveAspectRatio="xMidYMid meet" version="1" viewBox="0.0 0.0 500.0 379.2" width="500" zoomAndPan="magnify"><g id="Illustration"><g id="change1_1"><path d="M440.7879333,374.2893372H59.2104912c-18.9509468,0-34.3137245-15.3627625-34.3137245-34.3137207V39.2166138 c0-18.9509487,15.3627777-34.3137283,34.3137245-34.3137283h381.5774536c18.9509583,0,34.3137512,15.3627777,34.3137512,34.3137283 v300.7590027C475.1016846,358.9265747,459.7388916,374.2893372,440.7879333,374.2893372z" fill="#fffbe0"/></g><g id="change2_1"><path d="M440.7887268,379.1910706H59.2112808c-21.6231995,0-39.215683-17.5924683-39.215683-39.2156677V39.2156868 C19.9955959,17.5924854,37.5880814,0,59.2112808,0h381.5774536c21.6231995,0,39.2156677,17.5924854,39.2156677,39.2156868 v300.7597046C480.0043945,361.5986023,462.4119263,379.1910706,440.7887268,379.1910706z M59.2112808,9.8039217 c-16.2185936,0-29.4117641,13.1931677-29.4117641,29.4117661v300.7597046 c0,16.2185974,13.1931705,29.4117432,29.4117641,29.4117432h381.5774536c16.2185974,0,29.4117432-13.1931458,29.4117432-29.4117432 V39.2156868c0-16.2185974-13.1931458-29.4117661-29.4117432-29.4117661H59.2112808z" fill="#000000"/></g><g id="change3_1"><path d="M475.1016846,69.93293H24.8967667V39.2166138c0-18.9509487,15.3627777-34.3137283,34.3137245-34.3137283 h381.5774536c18.9509583,0,34.3137512,15.3627777,34.3137512,34.3137283V69.93293z" fill="#ffd83f"/></g><g id="change2_2"><path d="M475.1024475,74.8338852H24.8975563c-2.7070885,0-4.9019604-2.19487-4.9019604-4.9019547V39.2156868 C19.9955959,17.5924854,37.5880814,0,59.2112808,0h381.5774536c21.6231995,0,39.2156677,17.5924854,39.2156677,39.2156868 v30.7162437C480.0043945,72.6390152,477.8095398,74.8338852,475.1024475,74.8338852z M29.7995167,65.0299683H470.20047V39.2156868 c0-16.2185974-13.1931458-29.4117661-29.4117432-29.4117661H59.2112808c-16.2185936,0-29.4117641,13.1931677-29.4117641,29.4117661 V65.0299683z" fill="#000000"/></g><g id="change2_3"><path d="M495.098053,74.9535675H4.9019608C2.1948721,74.9535675,0,72.7586899,0,70.0516052 c0-2.7070923,2.1948721-4.9019623,4.9019608-4.9019623h490.196106c2.7070618,0,4.901947,2.19487,4.901947,4.9019623 C500,72.7586899,497.8051147,74.9535675,495.098053,74.9535675z" fill="#000000"/></g><g id="change2_4"><path d="M147.1028442,334.960083H90.6779175c-5.4145584,0-9.8039246-4.3893738-9.8039246-9.8039246v-38.3947754 c0-5.4145508,4.3893661-9.8039246,9.8039246-9.8039246h56.4249268c5.4145508,0,9.8039246,4.3893738,9.8039246,9.8039246v38.3947754 C156.9067688,330.5707092,152.517395,334.960083,147.1028442,334.960083z M147.1028442,192.6551208H90.6779175 c-5.4145584,0-9.8039246,4.3893738-9.8039246,9.8039246v38.3947601c0,5.4145508,4.3893661,9.8039246,9.8039246,9.8039246 h56.4249268c5.4145508,0,9.8039246-4.3893738,9.8039246-9.8039246v-38.3947601 C156.9067688,197.0444946,152.517395,192.6551208,147.1028442,192.6551208z M147.1028442,108.3527756H90.6779175 c-5.4145584,0-9.8039246,4.3893661-9.8039246,9.8039246v38.3947525c0,5.414566,4.3893661,9.8039246,9.8039246,9.8039246h56.4249268 c5.4145508,0,9.8039246-4.3893585,9.8039246-9.8039246v-38.3947525 C156.9067688,112.7421417,152.517395,108.3527756,147.1028442,108.3527756z M352.8955994,334.960083h56.4249268 c5.4145508,0,9.8039246-4.3893738,9.8039246-9.8039246v-38.3947754c0-5.4145508-4.3893738-9.8039246-9.8039246-9.8039246 h-56.4249268c-5.4145508,0-9.8039246,4.3893738-9.8039246,9.8039246v38.3947754 C343.0916748,330.5707092,347.4810486,334.960083,352.8955994,334.960083z M352.8955994,250.6577301h56.4249268 c5.4145508,0,9.8039246-4.3893738,9.8039246-9.8039246v-38.3947601c0-5.4145508-4.3893738-9.8039246-9.8039246-9.8039246 h-56.4249268c-5.4145508,0-9.8039246,4.3893738-9.8039246,9.8039246v38.3947601 C343.0916748,246.2683563,347.4810486,250.6577301,352.8955994,250.6577301z M352.8955994,166.3553772h56.4249268 c5.4145508,0,9.8039246-4.3893585,9.8039246-9.8039246v-38.3947525c0-5.4145584-4.3893738-9.8039246-9.8039246-9.8039246 h-56.4249268c-5.4145508,0-9.8039246,4.3893661-9.8039246,9.8039246v38.3947525 C343.0916748,161.9660187,347.4810486,166.3553772,352.8955994,166.3553772z M278.2116699,276.9574585h-56.4249115 c-5.414566,0-9.8039246,4.3893738-9.8039246,9.8039246v38.3947754c0,5.4145508,4.3893585,9.8039246,9.8039246,9.8039246h56.4249115 c5.4145813,0,9.8039246-4.3893738,9.8039246-9.8039246v-38.3947754 C288.0155945,281.3468323,283.6262512,276.9574585,278.2116699,276.9574585z M278.2116699,192.6551208h-56.4249115 c-5.414566,0-9.8039246,4.3893738-9.8039246,9.8039246v38.3947601c0,5.4145508,4.3893585,9.8039246,9.8039246,9.8039246h56.4249115 c5.4145813,0,9.8039246-4.3893738,9.8039246-9.8039246v-38.3947601 C288.0155945,197.0444946,283.6262512,192.6551208,278.2116699,192.6551208z M278.2116699,108.3527756h-56.4249115 c-5.414566,0-9.8039246,4.3893661-9.8039246,9.8039246v38.3947525c0,5.414566,4.3893585,9.8039246,9.8039246,9.8039246h56.4249115 c5.4145813,0,9.8039246-4.3893585,9.8039246-9.8039246v-38.3947525 C288.0155945,112.7421417,283.6262512,108.3527756,278.2116699,108.3527756z" fill="#000000"/></g></g></svg>