<?xml version="1.0" encoding="UTF-8" standalone="no"?><svg xmlns="http://www.w3.org/2000/svg" xmlns:xlink="http://www.w3.org/1999/xlink" fill="#000000" height="77.6" preserveAspectRatio="xMidYMid meet" version="1" viewBox="-0.3 0.0 157.2 77.6" width="157.2" zoomAndPan="magnify"><g id="change1_1"><path d="M129.51,59.3c-6.74,2.97-12.92,5.74-19.14,8.42c-2.14,0.92-4.34,1.78-6.59,2.38 c-8.96,2.42-18.04,4.23-27.34,4.71c-20.22,1.03-38.38-4.47-53.26-18.39C9.5,43.63,2.52,27.23,0.12,8.81C-0.34,5.27,0.49,2.53,2.47,0 c0.75,2.36,1.51,4.36,2.01,6.42c2.14,8.83,5.61,17.04,10.82,24.55c9.03,13.01,21.41,21.15,36.47,25.41c3.5,0.99,7.17,1.4,10.73,2.22 c18.76,4.28,36.12-0.93,53.19-7.89c4.95-2.02,9.71-4.5,14.54-6.8c0.9-0.43,1.72-1,2.44-2.28c-7.46,0.45-14.91,0.89-22.29,1.33 c-2.07-3.11-2.04-6.16-1.78-9.31c0.16-1.85,0.89-2.83,2.77-3.14c3.6-0.59,7.17-1.4,10.77-1.97c10.04-1.59,20.1-3.11,30.15-4.64 c0.63-0.1,1.28-0.07,2-0.1c1.66,2.35,2.56,4.77,1.75,7.67c-0.24,0.85-0.26,1.83-0.12,2.71c0.57,3.63-0.63,6.68-3.04,9.29 c-3.71,4.02-7.54,7.94-11.22,11.99c-1.92,2.11-3.75,4.34-5.37,6.68c-1.83,2.63-2.59,5.61-2.34,8.9c0.19,2.44,0.11,4.96-2.18,6.51 c-1.8-0.23-2.04-1.47-2.12-2.62c-0.25-3.63-0.43-7.26-0.52-10.9C129.07,62.62,129.34,61.21,129.51,59.3z" fill="#000000"/></g></svg>