<?xml version="1.0" encoding="UTF-8" standalone="no"?><svg xmlns="http://www.w3.org/2000/svg" xmlns:xlink="http://www.w3.org/1999/xlink" fill="#000000" height="518.2" preserveAspectRatio="xMidYMid meet" version="1" viewBox="-18.2 -18.2 518.2 518.2" width="518.2" zoomAndPan="magnify"><g id="Illustration"><g id="change1_1"><circle cx="186.652" cy="186.655" fill="#ffd83f" r="181.407"/></g><g id="change2_1"><path d="M186.6522217,373.3057251c-47.818985,0-95.6405792-18.2006226-132.0444489-54.6071167 c-72.8103561-72.8103485-72.8103561-191.2785339,0-264.0888977c72.8077545-72.8129654,191.2811432-72.8129654,264.0888977,0 c72.8103638,72.8103638,72.8103638,191.2785339,0,264.0888977 C282.2927856,355.1051025,234.4711914,373.3057251,186.6522217,373.3057251z M186.6522217,10.6626043 c-45.0875854,0-90.1777802,17.1617165-124.5038147,51.487751c-68.6520691,68.6520691-68.6520691,180.355545,0,249.0076294 s180.355545,68.6520691,249.0076294,0s68.6520691-180.3555603,0-249.0076294 C276.8299866,27.8243217,231.7398071,10.6626043,186.6522217,10.6626043z" fill="#000000"/></g><g id="change3_1"><path d="M380.938 320.384H439.681V500.241H380.938z" fill="#ffd83f" transform="rotate(-45 410.31 410.312)"/></g><g id="change2_2"><path d="M453.1288147,500.0019531c-1.3644104,0-2.7287903-0.520752-3.7703247-1.5622864L322.1805725,371.2617493 c-0.9998779-0.9998779-1.5622864-2.3564453-1.5622864-3.7703247s0.5624084-2.7704468,1.5622864-3.7703247l41.5385742-41.5359802 c2.0830688-2.0830383,5.4575806-2.0830383,7.5406494,0l127.1779175,127.1779175 C499.4375916,450.362915,500,451.7194824,500,453.1333618s-0.5624084,2.7704468-1.5622864,3.7703247l-41.5386047,41.5359802 C455.857605,499.4812012,454.4931946,500.0019531,453.1288147,500.0019531z M333.4915161,367.4914246l119.6372986,119.6372986 l33.9979553-33.9953613L367.4894714,333.4960632L333.4915161,367.4914246z" fill="#000000"/></g><g id="change2_3"><path d="M346.7214661,352.0560303c-1.3643799,0-2.7287903-0.520752-3.7702942-1.5622864l-31.7951355-31.7951355 c-2.0830688-2.0830383-2.0830688-5.4575806,0-7.5406189c2.0830383-2.0830688,5.4575806-2.0830688,7.5406189,0 l31.7951355,31.7951355c2.0830383,2.0830383,2.0830383,5.4575806,0,7.5406189 C349.4502563,351.5352783,348.0858765,352.0560303,346.7214661,352.0560303z" fill="#000000"/></g><g id="change4_1"><circle cx="186.652" cy="186.655" fill="#fffbe0" r="141.87"/></g><g id="change2_4"><path d="M186.6522217,333.7876892c-37.6953735,0-75.3907394-14.3495789-104.0873413-43.0462036 c-57.3957977-57.3931732-57.3957977-150.7814484,0-208.1746521c57.3932037-57.3931923,150.7814789-57.3931923,208.1746521,0 c57.395813,57.3932037,57.395813,150.7814789,0,208.1746521 C262.0429382,319.4381104,224.34758,333.7876892,186.6522217,333.7876892z M186.6522217,50.1806412 c-34.963974,0-69.927948,13.308075-96.5466995,39.9268341c-53.2349129,53.2349014-53.2349129,139.85849,0,193.0933838 c53.2375107,53.2375183,139.8558655,53.2375183,193.0933838,0c53.2348938-53.2349091,53.2348938-139.85849,0-193.0933838 C256.5801697,63.4887161,221.6161804,50.1806412,186.6522217,50.1806412z" fill="#000000"/></g></g></svg>