<?xml version="1.0" encoding="UTF-8" standalone="no"?><svg xmlns="http://www.w3.org/2000/svg" xmlns:xlink="http://www.w3.org/1999/xlink" fill="#000000" height="500" preserveAspectRatio="xMidYMid meet" version="1" viewBox="0.0 0.0 379.6 500.0" width="379.6" zoomAndPan="magnify"><g id="Illustration"><g id="change1_1"><path d="M4.9016428,460.7854614V39.2168427c0-18.9509449,15.3627787-34.3137245,34.3137283-34.3137245h300.7590332 c18.9509277,0,34.3137207,15.3627787,34.3137207,34.3137245v363.4643555 c-36.0914917,36.0914917-56.3265381,56.3265381-92.4180298,92.4179993H39.2153702 C20.2644215,495.0991821,4.9016428,479.7364197,4.9016428,460.7854614z" fill="#fffbe0"/></g><g id="change2_1"><path d="M281.8699341,500H39.2156868C17.5924854,500,0,482.4075012,0,460.7843018V39.2156868 C0,17.5924854,17.5924854,0,39.2156868,0h300.7597046c21.6231995,0,39.2156677,17.5924854,39.2156677,39.2156868v363.4655457 c0,1.2996826-0.5169983,2.5467224-1.4360962,3.4658203l-92.41922,92.4168091 C284.4166565,499.4830017,283.1696167,500,281.8699341,500z M39.2156868,9.8039217 c-16.2185974,0-29.4117661,13.1931677-29.4117661,29.4117661v421.5686035 c0,16.2185974,13.1931677,29.4117737,29.4117661,29.4117737H279.84021l89.546936-89.5445557V39.2156868 c0-16.2185974-13.1931458-29.4117661-29.4117432-29.4117661H39.2156868z" fill="#000000"/></g><g id="change3_1"><path d="M316.1837158,402.6810913h58.1044006v0.0000916 c-36.0914917,36.0914917-56.3265381,56.3265381-92.4180298,92.4179993h-0.0000916V436.994812 C281.8699951,418.0438843,297.2327881,402.6810913,316.1837158,402.6810913z" fill="#ffd83f"/></g><g id="change2_2"><path d="M281.8699341,500c-0.631897,0-1.2685852-0.1220703-1.8765259-0.3733826 c-1.8310547-0.7587585-3.0254517-2.5467224-3.0254517-4.5285645v-58.1030884 c0-21.6231995,17.5924988-39.2156982,39.2156982-39.2156982h58.1054688c1.981842,0,3.7698059,1.194397,4.5285645,3.0254517 c0.7587585,1.8334351,0.3398743,3.9397583-1.0627136,5.3423462l-92.41922,92.4168091 C284.3974915,499.5021362,283.14328,500,281.8699341,500z M316.1836548,407.5831909 c-16.2185974,0-29.4117737,13.1931763-29.4117737,29.4117737v46.2694397l75.6835938-75.6812134H316.1836548z" fill="#000000"/></g><g id="change2_3"><path d="M84.669 98.674H189.594V108.47800000000001H84.669z" fill="#000000"/></g><g id="change2_4"><path d="M84.669 171.253H294.52V181.057H84.669z" fill="#000000"/></g><g id="change2_5"><path d="M84.669 243.834H294.52V253.638H84.669z" fill="#000000"/></g><g id="change2_6"><path d="M84.669 316.416H294.52V326.21999999999997H84.669z" fill="#000000"/></g></g></svg>