<?xml version="1.0" encoding="UTF-8" standalone="no"?><svg xmlns="http://www.w3.org/2000/svg" xmlns:xlink="http://www.w3.org/1999/xlink" fill="#000000" height="500" preserveAspectRatio="xMidYMid meet" version="1" viewBox="0.0 0.0 500.0 500.0" width="500" zoomAndPan="magnify"><g id="Illustration"><g id="change1_1"><circle cx="249.999" cy="250" fill="#ffd83f" r="244.436"/></g><g id="change2_1"><path d="M250,500C112.15065,500,0,387.8493652,0,250S112.15065,0,250,0s249.9972839,112.15065,249.9972839,250 S387.8493652,500,250,500z M250,11.1270485C118.2846527,11.1270485,11.1270485,118.2846527,11.1270485,250 S118.2846527,488.8729553,250,488.8729553c131.712616,0,238.8702393-107.1575928,238.8702393-238.8729553 S381.712616,11.1270485,250,11.1270485z" fill="#353333"/></g><g id="change3_1"><circle cx="249.999" cy="250" fill="#fffbe0" r="198.052"/></g><g id="change2_2"><path d="M250,453.6146545c-112.2756042,0-203.6173706-91.3417664-203.6173706-203.6146545 S137.7243958,46.3853378,250,46.3853378c112.2728882,0,203.6146545,91.341774,203.6146545,203.6146545 S362.2728882,453.6146545,250,453.6146545z M250,57.5123863C143.8611145,57.5123863,57.5096703,143.8611145,57.5096703,250 S143.8611145,442.4876099,250,442.4876099S442.4876099,356.1388855,442.4876099,250S356.1388855,57.5123863,250,57.5123863z" fill="#353333"/></g><g id="change2_3"><path d="M183.1833801,353.2702026c-0.1005096,0-0.2010345-0.0027161-0.3015442-0.0081482 c-1.5565796-0.0842285-3.0045166-0.817688-3.9960632-2.0211182l-65.6430664-79.7991028 c-1.9504929-2.3715515-1.6109238-5.8786316,0.7633591-7.8318481c2.3715591-1.9477844,5.8813629-1.6082153,7.8318558,0.7633667 l61.7936859,75.1211548c15.902771-15.5007324,76.3083038-74.2572937,194.9705658-188.3394165 c2.2139893-2.1270752,5.7346497-2.0645905,7.8644409,0.1548309c2.1297913,2.2140045,2.0618896,5.7346802-0.1548462,7.8644562 C246.568985,293.5275269,187.6521301,351.1186829,187.0735016,351.6837158 C186.0303345,352.7024536,184.6340179,353.2702026,183.1833801,353.2702026z" fill="#353333"/></g></g></svg>